PathFileType	4	(X/Y/Z)	/Users/itak/Documents/Research/Walk-IL/dataset/trc/00097_00006.trc
DataRate	CameraRate	NumFrames	NumMarkers	Units	OrigDataRate	OrigDataStartFrame	OrigNumFrames
100.000000	100.000000	4	53	mm	100.000000	260	520
Frame#	Time	RPSI			LPSI			L3			STRN			T10			C7			CLAV			RBAK			LBAK			LSHO			LUPA			LAEL			LAOL			LWTS			LWPS			LFRA			LIFD			LHPS			LHTS			RSHO			RUPA			RAEL			RAOL			RWTS			RWPS			RFRA			RIFD			RHTS			RHPS			RBHD			LFHD			RFHD			LBHD			LHIP			RHIP			RASI			LASI			LKNE			LTHI			LANK			LTIP			LTOE			LMT1			LMT5			LHEE			RKNE			RTHI			RANK			RTIP			RTOE			RMT1			RMT5			RHEE			
		X1	Y1	Z1	X2	Y2	Z2	X3	Y3	Z3	X4	Y4	Z4	X5	Y5	Z5	X6	Y6	Z6	X7	Y7	Z7	X8	Y8	Z8	X9	Y9	Z9	X10	Y10	Z10	X11	Y11	Z11	X12	Y12	Z12	X13	Y13	Z13	X14	Y14	Z14	X15	Y15	Z15	X16	Y16	Z16	X17	Y17	Z17	X18	Y18	Z18	X19	Y19	Z19	X20	Y20	Z20	X21	Y21	Z21	X22	Y22	Z22	X23	Y23	Z23	X24	Y24	Z24	X25	Y25	Z25	X26	Y26	Z26	X27	Y27	Z27	X28	Y28	Z28	X29	Y29	Z29	X30	Y30	Z30	X31	Y31	Z31	X32	Y32	Z32	X33	Y33	Z33	X34	Y34	Z34	X35	Y35	Z35	X36	Y36	Z36	X37	Y37	Z37	X38	Y38	Z38	X39	Y39	Z39	X40	Y40	Z40	X41	Y41	Z41	X42	Y42	Z42	X43	Y43	Z43	X44	Y44	Z44	X45	Y45	Z45	X46	Y46	Z46	X47	Y47	Z47	X48	Y48	Z48	X49	Y49	Z49	X50	Y50	Z50	X51	Y51	Z51	X52	Y52	Z52	X53	Y53	Z53	

261	2.6	-559.0427856445312	1023.833190917969	271.9966430664062	-464.6404724121094	1013.893371582031	123.6638946533203	-506.9450073242188	1076.785522460938	198.7420806884766	-290.756103515625	1274.827270507812	323.095947265625	-522.0626220703125	1209.449340820312	189.0514373779297	-467.353759765625	1476.125854492188	211.1296539306641	-313.3903198242188	1389.31494140625	302.4987487792969	-562.7413940429688	1340.647094726562	248.0003967285156	-436.7096557617188	1435.860961914062	115.3049774169922	-311.8449096679688	1442.986694335938	99.9332275390625	-301.3271789550781	1320.656860351562	14.19359970092773	-300.1228637695312	1110.114501953125	-16.52669906616211	-386.0594482421875	1094.940307617188	44.86665725708008	-255.6039123535156	854.8269653320312	30.50504875183105	-295.8641357421875	860.3167114257812	-43.10588455200195	-289.5548400878906	1001.640625	-34.63662338256836	-279.9509887695312	671.7002563476562	24.64190483093262	-274.8803100585938	775.812255859375	-44.28154373168945	-242.5548706054688	770.8046875	19.26271820068359	-499.4476623535156	1443.751831054688	396.3486328125	-540.4913330078125	1373.61865234375	447.8150024414062	-574.9624633789062	1107.880493164062	461.1434020996094	-509.9505920410156	1086.217529296875	388.3369445800781	-425.033935546875	862.8168334960938	505.9888305664062	-509.7048034667969	845.8008422851562	516.5374145507812	-564.8165283203125	1028.68994140625	475.5608825683594	-410.1459350585938	677.2084350585938	493.0462036132812	-401.2260437011719	762.5901489257812	522.5494995117188	-477.1158447265625	758.4592895507812	542.33935546875	-463.263671875	1640.765380859375	247.249755859375	-277.3208312988281	1691.680786132812	355.5449523925781	-393.6422424316406	1674.287841796875	400.0307006835938	-340.9539489746094	1666.6484375	190.8072052001953	-325.9213256835938	952.9219360351562	110.8822402954102	-551.318359375	950.897216796875	372.953125	-435.7236633300781	967.1271362304688	425.8839721679688	-269.1198425292969	963.2782592773438	219.4920349121094	-219.0924377441406	516.0550537109375	266.9853210449219	-241.9168090820312	642.63037109375	191.8639221191406	-226.5929412841797	44.03883743286133	206.1263427734375	-212.7695007324219	268.4435119628906	228.6387023925781	-99.88549041748047	44.09421539306641	369.3529663085938	-171.7807312011719	45.297119140625	365.6134643554688	-132.5540313720703	35.70369720458984	260.2518615722656	-318.2115783691406	45.41867446899414	216.5077667236328	-469.2346496582031	496.2453002929688	383.1235046386719	-483.9475708007812	767.305908203125	413.9315185546875	-751.6651611328125	147.291259765625	169.6528778076172	-535.2316284179688	392.1978149414062	343.2449035644531	-577.8121948242188	42.7140007019043	184.7368469238281	-605.7662353515625	79.17710876464844	137.2991180419922	-669.2069091796875	65.24954223632812	211.3424987792969	-754.4304809570312	192.2930603027344	113.1981506347656	
262	2.61	-552.188720703125	1023.617248535156	274.0654602050781	-456.7787780761719	1014.630065917969	126.569221496582	-499.2635192871094	1077.349609375	200.7658843994141	-284.2316589355469	1275.482788085938	328.1611938476562	-513.2933349609375	1210.313110351562	190.5108642578125	-458.8929443359375	1476.960327148438	213.2492218017578	-306.5137329101562	1389.980224609375	307.1990051269531	-554.9337158203125	1341.503662109375	248.6793518066406	-426.5216979980469	1436.484619140625	117.9634704589844	-301.4292907714844	1443.6015625	104.7403564453125	-289.0067138671875	1321.31689453125	19.14858627319336	-286.650146484375	1110.428466796875	-11.20670509338379	-373.8231811523438	1095.267211914062	48.0541877746582	-241.2322692871094	856.0172119140625	38.88908767700195	-280.3519287109375	860.2789916992188	-35.43929672241211	-275.0406188964844	1001.844970703125	-28.43524551391602	-263.4671325683594	672.7092895507812	34.91172790527344	-258.4290466308594	776.005859375	-35.23125457763672	-227.0302734375	772.1882934570312	28.82159805297852	-493.9107360839844	1444.613525390625	398.000244140625	-536.0086059570312	1374.699951171875	448.7308654785156	-572.3688354492188	1109.351928710938	461.7169494628906	-506.0315246582031	1087.15185546875	390.1208190917969	-425.978515625	862.5068359375	508.6045837402344	-511.0580139160156	846.6714477539062	517.8607788085938	-563.1904907226562	1030.176879882812	476.2377319335938	-413.7809448242188	676.6550903320312	495.0753479003906	-404.005615234375	761.7589111328125	525.04443359375	-480.1054992675781	758.7257080078125	543.8242797851562	-456.1100158691406	1641.108520507812	249.4772491455078	-271.2053527832031	1693.102783203125	359.07080078125	-387.8154602050781	1675.336669921875	402.7029724121094	-333.4176635742188	1667.336669921875	193.9293518066406	-317.8622436523438	953.756591796875	114.7466354370117	-544.6729736328125	950.6810302734375	375.164794921875	-429.6285400390625	967.7734985351562	429.1023864746094	-261.8028869628906	963.8478393554688	223.6797943115234	-214.6297607421875	515.53076171875	268.6146240234375	-236.8621520996094	642.4752807617188	193.9675598144531	-226.5411529541016	44.00593948364258	206.2203063964844	-210.7652740478516	268.0318603515625	229.1725311279297	-99.57546997070312	43.39276885986328	369.3490295410156	-171.6582946777344	45.11069107055664	365.7910766601562	-132.2859497070312	35.38637924194336	260.3569946289062	-318.1703186035156	45.49805068969727	216.6218414306641	-457.255615234375	496.8510437011719	393.337158203125	-475.9600219726562	768.1728515625	419.186767578125	-741.5617065429688	154.1242980957031	174.0093841552734	-522.9963989257812	393.7394409179688	352.4761962890625	-570.7858276367188	44.67235946655273	194.3434753417969	-596.3719482421875	82.88001251220703	145.8236236572266	-662.2981567382812	70.37881469726562	218.2756805419922	-741.93896484375	198.9401550292969	117.4801330566406	
263	2.62	-545.4948120117188	1023.361083984375	276.170654296875	-449.1896362304688	1015.27783203125	129.452392578125	-491.8582458496094	1077.918212890625	202.7135925292969	-277.9749450683594	1276.061889648438	333.2847290039062	-504.672119140625	1211.185424804688	191.9292907714844	-450.5564880371094	1477.791625976562	215.4221343994141	-299.866455078125	1390.578002929688	311.9859924316406	-547.2905883789062	1342.351318359375	249.3171997070312	-416.4241333007812	1437.1162109375	120.6955261230469	-291.1226806640625	1444.106567382812	109.7105712890625	-276.7464294433594	1321.85791015625	24.34028053283691	-273.0687255859375	1110.672973632812	-5.821365833282471	-361.6292419433594	1095.45166015625	51.21335601806641	-226.8811798095703	857.2056274414062	47.54549789428711	-264.7400512695312	860.175537109375	-27.51738739013672	-260.4551696777344	1001.97314453125	-22.03695678710938	-246.8961334228516	673.7525024414062	45.59397125244141	-241.8524932861328	776.1716918945312	-25.83334350585938	-211.4696502685547	773.6182250976562	38.74468612670898	-488.6011657714844	1445.379760742188	399.6356201171875	-531.7587890625	1375.684692382812	449.5929260253906	-570.0401611328125	1110.721313476562	462.2175598144531	-502.4622497558594	1087.96435546875	391.7992858886719	-427.0164489746094	862.3128662109375	511.1446838378906	-512.423828125	847.5030517578125	519.1213989257812	-561.7841796875	1031.561157226562	476.8529663085938	-417.1183776855469	676.3099975585938	497.1353454589844	-406.6223754882812	761.159912109375	527.535888671875	-482.916259765625	759.0590209960938	545.2877807617188	-449.0613403320312	1641.406127929688	251.7742156982422	-265.1834716796875	1694.47412109375	362.6696166992188	-382.0780029296875	1676.359008789062	405.4442443847656	-325.975830078125	1667.952880859375	197.1364440917969	-310.019287109375	954.4957275390625	118.5755844116211	-538.1621704101562	950.5092163085938	377.4330139160156	-423.7135620117188	968.4473266601562	432.3327026367188	-254.6533203125	964.4035034179688	227.7932586669922	-210.3013763427734	515.0072631835938	270.236328125	-231.9579620361328	642.3515625	196.1312408447266	-226.5189208984375	43.97797393798828	206.2853851318359	-208.8643798828125	267.6448364257812	229.6505279541016	-99.38510894775391	42.94854354858398	369.3327331542969	-171.5975036621094	44.9990348815918	365.9240417480469	-132.0790557861328	35.13015747070312	260.4353637695312	-318.1636047363281	45.56060028076172	216.7029876708984	-445.4960021972656	497.81787109375	403.4750366210938	-468.1634826660156	769.2174072265625	424.5072631835938	-730.4950561523438	160.4253387451172	178.7557067871094	-510.724609375	395.5211486816406	361.7061157226562	-562.5271606445312	47.07506561279297	205.1342010498047	-585.8312377929688	86.30020141601562	155.3478698730469	-654.1589965820312	75.93293762207031	226.3095245361328	-728.6325073242188	204.5553894042969	121.8608093261719	
264	2.63	-538.9176635742188	1023.169799804688	278.3366394042969	-441.8192138671875	1015.867492675781	132.3386993408203	-484.7028503417969	1078.534545898438	204.6280517578125	-271.9657287597656	1276.61474609375	338.43798828125	-496.2481689453125	1212.081665039062	193.3191528320312	-442.3622436523438	1478.631103515625	217.6428985595703	-293.4483032226562	1391.151611328125	316.828369140625	-539.8037109375	1343.209350585938	249.9324035644531	-406.4468383789062	1437.77978515625	123.498420715332	-280.9671325683594	1444.546630859375	114.8148651123047	-264.5817260742188	1322.315063476562	29.75845336914062	-259.3837280273438	1110.891967773438	-0.3306956887245178	-349.4802856445312	1095.526000976562	54.40549850463867	-212.5805816650391	858.415771484375	56.48282241821289	-249.0408935546875	860.0673217773438	-19.33338356018066	-245.8130798339844	1002.075378417969	-15.3973503112793	-230.3053436279297	674.8613891601562	56.61209869384766	-225.18017578125	776.3724975585938	-16.11138725280762	-195.9308166503906	775.1097412109375	49.01407623291016	-483.4958801269531	1446.092407226562	401.2511901855469	-527.7186889648438	1376.616821289062	450.3983459472656	-567.9349975585938	1112.038452148438	462.6161499023438	-499.2257995605469	1088.719360351562	393.3311462402344	-428.1413879394531	862.2584838867188	513.6087036132812	-513.8010864257812	848.3265380859375	520.2969360351562	-560.5758666992188	1032.889282226562	477.3721313476562	-420.1592102050781	676.176025390625	499.2791748046875	-409.0776672363281	760.8125610351562	530.0611572265625	-485.5662841796875	759.4891967773438	546.7329711914062	-442.1263122558594	1641.695434570312	254.1508331298828	-259.2504577636719	1695.792846679688	366.3545837402344	-376.4247131347656	1677.376342773438	408.2651062011719	-318.6325988769531	1668.5166015625	200.4358673095703	-302.3771362304688	955.1546630859375	122.3821105957031	-531.8033447265625	950.4957885742188	379.7896728515625	-417.9683532714844	969.2174682617188	435.5849914550781	-247.6501770019531	964.96728515625	231.8582611083984	-206.0986938476562	514.4898071289062	271.9164733886719	-227.1369476318359	642.2784423828125	198.4190979003906	-226.5115356445312	43.9493522644043	206.3253936767578	-207.0340270996094	267.2796325683594	230.1371154785156	-99.27780914306641	42.6938591003418	369.306884765625	-171.5685577392578	44.94046401977539	366.0106811523438	-131.9212493896484	34.91341018676758	260.4845275878906	-318.174560546875	45.61767959594727	216.7551116943359	-433.9595336914062	499.1680603027344	413.5237731933594	-460.5584411621094	770.4864501953125	429.8834533691406	-718.4844970703125	166.0222778320312	183.9437713623047	-498.4854125976562	397.5505065917969	370.9265747070312	-553.0438232421875	49.84457778930664	216.9133605957031	-574.2265014648438	89.35531616210938	165.7351531982422	-644.76220703125	81.59709167480469	235.2546844482422	-714.5557861328125	209.0502166748047	126.4413833618164	
